Coordinates
version=1
nRows=14
nColumns=40
inDegrees=yes
endheader
time	/jointset/ground_pelvis/pelvis_tilt/value	/jointset/ground_pelvis/pelvis_list/value	/jointset/ground_pelvis/pelvis_rotation/value	/jointset/ground_pelvis/pelvis_tx/value	/jointset/ground_pelvis/pelvis_ty/value	/jointset/ground_pelvis/pelvis_tz/value	/jointset/hip_r/hip_flexion_r/value	/jointset/hip_r/hip_adduction_r/value	/jointset/hip_r/hip_rotation_r/value	/jointset/walker_knee_r/knee_angle_r/value	/jointset/patellofemoral_r/knee_angle_r_beta/value	/jointset/ankle_r/ankle_angle_r/value	/jointset/subtalar_r/subtalar_angle_r/value	/jointset/mtp_r/mtp_angle_r/value	/jointset/hip_l/hip_flexion_l/value	/jointset/hip_l/hip_adduction_l/value	/jointset/hip_l/hip_rotation_l/value	/jointset/walker_knee_l/knee_angle_l/value	/jointset/patellofemoral_l/knee_angle_l_beta/value	/jointset/ankle_l/ankle_angle_l/value	/jointset/subtalar_l/subtalar_angle_l/value	/jointset/mtp_l/mtp_angle_l/value	/jointset/back/lumbar_extension/value	/jointset/back/lumbar_bending/value	/jointset/back/lumbar_rotation/value	/jointset/acromial_r/arm_flex_r/value	/jointset/acromial_r/arm_add_r/value	/jointset/acromial_r/arm_rot_r/value	/jointset/elbow_r/elbow_flex_r/value	/jointset/radioulnar_r/pro_sup_r/value	/jointset/radius_hand_r/wrist_flex_r/value	/jointset/radius_hand_r/wrist_dev_r/value	/jointset/acromial_l/arm_flex_l/value	/jointset/acromial_l/arm_add_l/value	/jointset/acromial_l/arm_rot_l/value	/jointset/elbow_l/elbow_flex_l/value	/jointset/radioulnar_l/pro_sup_l/value	/jointset/radius_hand_l/wrist_flex_l/value	/jointset/radius_hand_l/wrist_dev_l/value
      1.43333333	      5.31566981	      8.78932134	     -2.96545280	      0.97205739	      1.07085119	     -0.49486261	     -5.82729569	    -13.17965274	      1.89920755	     61.51853669	      1.07370102	     -8.05245830	      0.00000000	      0.00000000	     18.91346914	      7.47175262	     -7.72622746	     33.86505048	      0.59105663	      7.89750774	      0.00000000	      0.00000000	    -22.53153481	    -11.86365804	     -1.17563344	     -2.90491188	    -10.77899448	     -4.14155474	     54.33698469	     62.28324559	      0.00000000	      0.00000000	     -2.75922626	    -14.87079170	     10.12515502	     29.68562262	     55.23934849	      0.00000000	      0.00000000
      1.44166667	      5.49025457	      8.75487565	     -3.25865101	      0.97077258	      1.07331005	     -0.49504356	     -4.31982415	    -13.00406914	      2.97486230	     63.78735118	      1.11329930	     -6.79781465	      0.00000000	      0.00000000	     17.84546095	      7.53954916	     -7.68671890	     33.53005841	      0.58520992	      8.50004408	      0.00000000	      0.00000000	    -22.74305338	    -11.79857244	     -1.11367874	     -2.81792655	    -10.54473753	     -4.16699981	     52.58394836	     62.18393186	      0.00000000	      0.00000000	     -2.43904159	    -15.08241777	     10.09632852	     30.41666471	     55.20859110	      0.00000000	      0.00000000
      1.45000000	      5.17593438	      8.84976879	     -3.49102890	      0.96948789	      1.07495089	     -0.49526339	     -2.17612470	    -12.99761885	      3.86138100	     66.09813894	      1.15363015	     -5.42639971	      0.00000000	      0.00000000	     17.37127383	      7.65749352	     -7.96342469	     33.29781553	      0.58115651	      8.83998173	      0.00000000	      0.00000000	    -22.36089269	    -11.87520473	     -1.28936964	     -2.64736408	    -10.34674477	     -3.60497140	     50.53993063	     62.01142809	      0.00000000	      0.00000000	     -2.42465615	    -15.30137077	      9.66704554	     31.26246847	     55.07507825	      0.00000000	      0.00000000
      1.45833333	      5.13318658	      8.75299370	     -3.62389614	      0.96807850	      1.07722821	     -0.49560228	     -0.46234521	    -12.77431440	      4.51897101	     67.90951754	      1.18524467	     -4.30971060	      0.00000000	      0.00000000	     16.49972802	      7.66103282	     -8.00528706	     32.89847264	      0.57418667	      9.25812352	      0.00000000	      0.00000000	    -22.34170987	    -11.70012772	     -1.44714336	     -2.52371950	    -10.16269922	     -3.37390742	     48.69045161	     61.76866399	      0.00000000	      0.00000000	     -2.24993796	    -15.49979112	      9.41299573	     32.07018294	     55.03815011	      0.00000000	      0.00000000
      1.46666667	      5.14864354	      8.51966221	     -3.68447456	      0.96655189	      1.07977893	     -0.49610595	      1.11311446	    -12.42318357	      4.96941752	     69.32303940	      1.20991529	     -3.57848143	      0.00000000	      0.00000000	     15.49222611	      7.57064545	     -7.88135105	     32.35538377	      0.56470798	      9.68914671	      0.00000000	      0.00000000	    -22.42245754	    -11.33257767	     -1.56031603	     -2.49716054	    -10.00549644	     -3.34104487	     47.05535494	     61.58151807	      0.00000000	      0.00000000	     -1.97042582	    -15.64972428	      9.29086479	     32.81675813	     55.04733563	      0.00000000	      0.00000000
      1.47500000	      5.10830850	      8.26936183	     -3.71829692	      0.96492173	      1.08234290	     -0.49659083	      2.72343317	    -12.04416885	      5.34084223	     70.43427920	      1.22931008	     -3.11640176	      0.00000000	      0.00000000	     14.53031107	      7.46267891	     -7.70303782	     31.77294750	      0.55454255	     10.02918802	      0.00000000	      0.00000000	    -22.47574464	    -10.95507530	     -1.65268168	     -2.55087180	     -9.87635928	     -3.28033552	     45.49345762	     61.43961424	      0.00000000	      0.00000000	     -1.67354788	    -15.80433305	      9.14265260	     33.57894508	     55.06020889	      0.00000000	      0.00000000
      1.48333333	      5.00188245	      8.01330461	     -3.72325409	      0.96341904	      1.08482535	     -0.49717668	      4.35200747	    -11.67916531	      5.58842664	     71.30340694	      1.24447922	     -2.74453791	      0.00000000	      0.00000000	     13.62765361	      7.32510227	     -7.66295536	     31.16131768	      0.54386759	     10.28323802	      0.00000000	      0.00000000	    -22.40291803	    -10.55189299	     -1.80091449	     -2.58282664	     -9.77722629	     -3.15242054	     43.87318820	     61.32524532	      0.00000000	      0.00000000	     -1.44439025	    -15.96348804	      8.90032936	     34.39630406	     55.07098338	      0.00000000	      0.00000000
      1.49166667	      4.87897670	      7.73797985	     -3.73801551	      0.96204371	      1.08732009	     -0.49774405	      5.94077505	    -11.27806284	      5.81113618	     71.86548359	      1.25428931	     -2.36190708	      0.00000000	      0.00000000	     12.70585262	      7.16885009	     -7.59409945	     30.49271949	      0.53219835	     10.52693273	      0.00000000	      0.00000000	    -22.30588551	    -10.13031533	     -1.93471243	     -2.67902404	     -9.68610077	     -2.97490400	     42.33191796	     61.24109131	      0.00000000	      0.00000000	     -1.25773542	    -16.11008789	      8.57401423	     35.24500054	     55.08030582	      0.00000000	      0.00000000
      1.50000000	      4.76875686	      7.48716093	     -3.72273196	      0.96090780	      1.08974426	     -0.49842062	      7.44054245	    -10.88740462	      6.00690056	     72.19228776	      1.25999312	     -1.92025619	      0.00000000	      0.00000000	     11.74197602	      7.03992800	     -7.53714089	     29.80223184	      0.52014707	     10.75639815	      0.00000000	      0.00000000	    -22.20872276	     -9.72369038	     -2.15965907	     -2.80589169	     -9.64344936	     -2.75353005	     40.82876700	     61.17558661	      0.00000000	      0.00000000	     -1.16074004	    -16.22903017	      8.13285013	     36.13796891	     55.10068002	      0.00000000	      0.00000000
      1.50833333	      4.69520856	      7.21955566	     -3.66814875	      0.95988514	      1.09212356	     -0.49908181	      8.82412501	    -10.48787044	      6.08985643	     72.27366979	      1.26141350	     -1.43016790	      0.00000000	      0.00000000	     10.70554399	      6.90458966	     -7.40728243	     29.05486503	      0.50710306	     11.01327811	      0.00000000	      0.00000000	    -22.14626145	     -9.29654716	     -2.36364597	     -3.05798010	     -9.60721049	     -2.59365203	     39.58806042	     61.09103422	      0.00000000	      0.00000000	     -1.02740680	    -16.34883444	      7.70411502	     37.03067157	     55.11547670	      0.00000000	      0.00000000
      1.51666667	      4.65751950	      6.95610279	     -3.56418170	      0.95888781	      1.09434131	     -0.49982304	     10.11762629	    -10.12619957	      6.05363807	     72.17704134	      1.25972702	     -0.89960717	      0.00000000	      0.00000000	      9.61728643	      6.77690882	     -7.27612351	     28.28111845	      0.49359863	     11.25448193	      0.00000000	      0.00000000	    -22.11107807	     -8.84168248	     -2.59128817	     -3.39611612	     -9.62398607	     -2.52927834	     38.51424452	     61.00286315	      0.00000000	      0.00000000	     -0.87976892	    -16.47163532	      7.32122214	     37.91736066	     55.13142521	      0.00000000	      0.00000000
      1.52500000	      4.82952380	      6.89935768	     -3.39018679	      0.95777995	      1.09678393	     -0.50038135	     11.09184933	    -10.02344989	      5.89704869	     71.80498411	      1.25323339	     -0.16204945	      0.00000000	      0.00000000	      8.25021298	      6.90018175	     -7.01907634	     27.30660574	      0.47659018	     11.24868971	      0.00000000	      0.00000000	    -22.39462817	     -8.66263665	     -3.46695102	     -3.24571522	     -9.52215728	     -1.86556684	     36.88450070	     60.82193464	      0.00000000	      0.00000000	     -1.24343101	    -16.67400534	      5.70766270	     39.54631430	     55.21703395	      0.00000000	      0.00000000
      1.53333333	      4.78330032	      6.61035418	     -3.24344641	      0.95649915	      1.09867210	     -0.50088249	     12.28385651	     -9.60656165	      5.79557433	     71.27231451	      1.24393655	      0.52153021	      0.00000000	      0.00000000	      7.15728644	      6.72952780	     -6.81593319	     26.45107015	      0.46165826	     11.47621496	      0.00000000	      0.00000000	    -22.41538960	     -8.19848939	     -3.72167778	     -3.62940020	     -9.52622988	     -1.78856501	     36.07743837	     60.64454241	      0.00000000	      0.00000000	     -1.04864562	    -16.85971133	      5.26781825	     40.50056376	     55.29183602	      0.00000000	      0.00000000
      1.54166667	      4.65611730	      6.34262103	     -3.07998612	      0.95538962	      1.10022692	     -0.50151527	     13.51609043	     -9.30931722	      5.49418189	     70.54927172	      1.23131708	      1.09259709	      0.00000000	      0.00000000	      6.18028520	      6.55117915	     -6.86900752	     25.66921111	      0.44801225	     11.67873980	      0.00000000	      0.00000000	    -22.30068831	     -7.74697477	     -3.88924877	     -4.17925648	     -9.57045705	     -1.81238964	     35.46784631	     60.51638128	      0.00000000	      0.00000000	     -0.80147264	    -17.00819981	      5.03996312	     41.29259742	     55.30604592	      0.00000000	      0.00000000
